HIERARCHY
ROOT Hips
{
	OFFSET 0.000000 0.000000 0.000000 
	CHANNELS 6 Xposition Yposition Zposition Yrotation Zrotation Xrotation 
	JOINT Lumbar
	{
		OFFSET 0.000000 0.000000 0.000000 
		CHANNELS 3 Zrotation Xrotation Yrotation
		JOINT Neck
		{
			OFFSET 0.000000 0.445665 0.000000 
			CHANNELS 3 Zrotation Xrotation Yrotation
			End Site
			{
				OFFSET 0.000000 0.227535 0.000000 
			}
		}
		JOINT RightShoulder
		{
			OFFSET 0.019635 0.377685 0.194865 
			CHANNELS 3 Zrotation Xrotation Yrotation
			JOINT RightElbow
			{
				OFFSET 0.000000 -0.243375 0.000000 
				CHANNELS 2 Zrotation Yrotation
				JOINT RightWrist
				{
					OFFSET 0.000000 -0.264825 0.000000 
					CHANNELS 2 Zrotation Xrotation
					End Site
					{
						OFFSET 0.006600 -0.176220 0.000990 
					}
				}
			}
		}
		JOINT LeftShoulder
		{
			OFFSET 0.019635 0.377685 -0.194865 
			CHANNELS 3 Zrotation Xrotation Yrotation
			JOINT LeftElbow
			{
				OFFSET 0.000000 -0.243375 0.000000 
				CHANNELS 2 Zrotation Yrotation
				JOINT LeftWrist
				{
					OFFSET 0.000000 -0.264825 0.000000 
					CHANNELS 2 Zrotation Xrotation
					End Site
					{
						OFFSET 0.006600 -0.176220 -0.000990 
					}
				}
			}
		}
	}
	JOINT RightHip
	{
		OFFSET 0.052140 -0.069960 0.075570 
		CHANNELS 3 Zrotation Xrotation Yrotation
		JOINT RightKnee
		{
			OFFSET 0.000000 -0.402270 0.000000 
			CHANNELS 1 Zrotation
			JOINT RightAnkle
			{
				OFFSET 0.000000 -0.404085 0.000000 
				CHANNELS 3 Zrotation Xrotation Yrotation
				End Site
				{
					OFFSET 0.204105 -0.089430 0.008415 
				}
			}
		}
	}
	JOINT LeftHip
	{
		OFFSET 0.052140 -0.069960 -0.075570 
		CHANNELS 3 Zrotation Xrotation Yrotation
		JOINT LeftKnee
		{
			OFFSET 0.000000 -0.402270 0.000000 
			CHANNELS 1 Zrotation
			JOINT LeftAnkle
			{
				OFFSET 0.000000 -0.404085 0.000000 
				CHANNELS 3 Zrotation Xrotation Yrotation
				End Site
				{
					OFFSET 0.204105 -0.089430 -0.008415 
				}
			}
		}
	}
}
MOTION
Frames: 14
Frame Time: 0.02
0.00061 0.95043 -0.01524 180.08655 0 -3.90053 3.26951 5.49532 1.10388 -26.99329 -2.46267 -0.12415 0.88705 -9.05838 10.61439 99.09219 108.13349 -69.35825 -5.82572 10.53983 16.32966 -9.88309 70.88073 -60.35374 -17.6579 -1.70708 -0.88023 1.23984 2.07011 -22.82389 5.0404 -4.40871 -7.52501 -3.10021 4.99244 -6.2399 -7.35525 8.84281 6.11639 8.3655
0.00122 0.95009 -0.00999 179.46356 0 -3.82699 3.06282 5.43826 1.13175 -27.80434 -2.23219 0.17677 2.41097 -9.34441 10.62242 98.13876 108.21969 -69.35206 -5.83072 11.60972 16.0627 -10.54497 70.69366 -60.87005 -17.64433 -1.56773 0.41771 0.78739 2.31097 -24.86416 4.85639 -4.15598 -6.87552 -3.23381 4.61748 -5.75903 -7.20551 8.89469 6.11783 8.31524
0.00209 0.94963 -0.00464 178.82304 0 -3.73074 2.79891 5.34809 1.22334 -28.52948 -2.01625 0.48939 3.94747 -9.63875 10.66502 96.8305 108.57285 -69.33784 -5.86617 12.70966 15.85749 -11.38746 70.52527 -61.54007 -17.65839 -1.39268 1.92634 0.32463 2.62645 -27.21817 4.60525 -3.87266 -6.2043 -3.36175 4.22451 -5.26482 -7.0266 8.94851 6.09381 8.22149
0.00287 0.94923 0.00063 178.19254 0 -3.64622 2.55612 5.27314 1.28288 -29.28333 -1.80574 0.78434 5.43632 -9.9125 10.70416 95.74466 108.69907 -69.33013 -5.87862 13.77973 15.65043 -12.14079 70.36187 -62.12827 -17.66645 -1.237 3.35916 -0.12183 2.91785 -29.44899 4.35692 -3.60369 -5.54465 -3.48857 3.84373 -4.78009 -6.86323 8.99996 6.08215 8.14951
0.00354 0.94881 0.0061 177.54848 0 -3.55358 2.33375 5.19537 1.35647 -30.08939 -1.54427 1.13331 7.12421 -10.25854 10.69774 94.39323 109.31142 -69.31369 -5.93576 14.9312 15.33343 -12.92943 70.14151 -62.76875 -17.64494 -1.06782 4.7181 -0.62038 3.17231 -31.61662 4.21584 -3.3307 -4.87107 -3.63242 3.44338 -4.27645 -6.68694 9.0575 6.06658 8.06749
0.0045 0.94841 0.01115 176.93276 0 -3.47428 2.05607 5.11673 1.41447 -30.76254 -1.39046 1.37294 8.39294 -10.45947 10.78817 93.5128 108.94134 -69.30894 -5.9025 15.91548 15.25783 -13.68717 70.04238 -63.33509 -17.69072 -0.9187 6.27052 -1.01065 3.51526 -33.97045 3.84844 -3.061 -4.22654 -3.73873 3.082 -3.81232 -6.53256 9.10299 6.05339 7.99685
0.00626 0.94805 0.01513 176.37043 0 -3.42511 1.63086 5.04015 1.42733 -31.0952 -1.555 1.29394 8.48958 -10.20811 11.18542 94.0269 106.02059 -69.37135 -5.6389 16.42795 15.85795 -14.29206 70.29681 -63.67202 -17.93568 -0.82952 8.38412 -1.1122 4.13931 -36.9154 2.75466 -2.79108 -3.6367 -3.7451 2.81472 -3.44108 -6.43729 9.11346 6.05221 7.96579
0.00828 0.94772 0.01867 175.84311 0 -3.39256 1.15369 4.96485 1.41991 -31.29493 -1.82322 1.10663 8.16277 -9.81871 11.66954 95.02532 102.06269 -69.43434 -5.27719 16.76956 16.69432 -14.86243 70.66875 -63.92629 -18.24447 -0.76252 10.66896 -1.10164 4.83996 -40.0051 1.45513 -2.52884 -3.08392 -3.71348 2.59085 -3.11406 -6.36683 9.11199 6.05446 7.94825
0.01013 0.9474 0.02234 175.31905 0 -3.36062 0.70574 4.89156 1.41283 -31.55067 -2.02803 0.97755 8.03416 -9.52435 12.08258 95.80078 98.41994 -69.48239 -4.94312 17.18961 17.40714 -15.46341 70.97161 -64.2102 -18.51102 -0.68801 12.825 -1.1339 5.46912 -42.93033 0.32974 -2.27402 -2.53397 -3.69725 2.35885 -2.77994 -6.29122 9.11683 6.05576 7.92649
0.01224 0.94697 0.02631 174.71294 0 -3.29349 0.2314 4.80588 1.44505 -31.82192 -2.30168 0.81094 7.88226 -9.09455 12.63126 96.58307 95.42142 -69.61421 -4.68415 17.60848 18.19139 -16.00976 71.3404 -64.53399 -18.83317 -0.60128 15.20836 -1.20137 6.25441 -46.29355 -1.12945 -1.9716 -1.89696 -3.68786 2.07686 -2.39045 -6.18952 9.11799 6.05378 7.89547
0.01385 0.94678 0.02955 174.28685 0 -3.30381 -0.19861 4.74708 1.39029 -32.03067 -2.45692 0.69655 7.67782 -8.91325 12.91637 97.46164 90.86238 -69.54405 -4.242 17.98771 18.88097 -16.65688 71.60061 -64.75177 -19.05579 -0.54589 17.15025 -1.1681 6.73336 -48.76181 -1.95263 -1.77115 -1.45435 -3.65642 1.91001 -2.12695 -6.14739 9.12397 6.05956 7.88701
0.01414 0.94723 0.03094 174.34432 0 -3.52457 -0.50131 4.75934 1.09594 -32.09694 -2.2555 0.75324 7.43378 -9.45696 12.46137 98.56826 82.00783 -69.13608 -3.34914 18.30786 19.26094 -17.60984 71.52254 -64.70739 -18.97491 -0.57051 17.88055 -0.88921 6.33449 -48.83403 -0.87201 -1.84485 -1.50489 -3.56367 2.04635 -2.20066 -6.27325 9.14635 6.08814 7.94221
0.0139 0.94792 0.03159 174.58244 0 -3.82248 -0.75567 4.79921 0.71557 -32.10586 -1.93223 0.86614 7.15162 -10.25395 11.7357 99.74182 71.68329 -68.47194 -2.27316 18.59229 19.53511 -18.66035 71.33258 -64.55647 -18.79371 -0.62631 18.15058 -0.5118 5.62775 -47.97996 0.83791 -2.02164 -1.75556 -3.45195 2.29779 -2.39947 -6.45674 9.1741 6.12424 8.01904
0.01385 0.9485 0.03254 174.74161 0 -4.08502 -1.02698 4.82857 0.37671 -32.14291 -1.66729 0.95287 6.88474 -10.93233 11.12864 100.83363 62.16084 -67.79579 -1.25561 18.88718 19.85141 -19.65343 71.20045 -64.44676 -18.66713 -0.66871 18.59763 -0.17602 5.06898 -47.47375 2.1964 -2.15561 -1.93847 -3.35527 2.4995 -2.54125 -6.60757 9.19912 6.15546 8.08308
